<svg class="svg-icon" style="width: 1em; height: 1em;vertical-align: middle;fill: currentColor;overflow: hidden;" viewBox="0 0 1024 1024" version="1.1" xmlns="http://www.w3.org/2000/svg"><path d="M607.7 487.8c-11.1 0-21.8-5.7-27.7-16-8.8-15.3-3.6-34.9 11.7-43.7 49.4-28.5 80.1-81.8 80.1-139 0-88.3-71.5-160.2-159.5-160.2-87.9 0-159.5 71.9-159.5 160.2 0 57.2 30.7 110.4 80.1 139 15.3 8.8 20.5 28.4 11.7 43.7-8.8 15.3-28.4 20.5-43.7 11.7-33.5-19.3-61.5-47.2-81.2-80.5-20.2-34.4-30.9-73.7-30.9-113.9 0-59.9 23.2-116.1 65.4-158.5 42.2-42.4 98.3-65.7 158.1-65.7s115.8 23.3 158.1 65.7c42.2 42.3 65.4 98.6 65.4 158.5 0 40.1-10.7 79.5-31 113.9-19.6 33.4-47.7 61.2-81.2 80.5-4.9 2.9-10.4 4.3-15.9 4.3z"  /><path d="M708.6 699.3c-12 0-23.5-6.8-29-18.4l-100-212.1c-7.5-16-0.7-35.1 15.3-42.6s35.1-0.7 42.6 15.3l100.1 212.2c7.5 16 0.7 35.1-15.3 42.6-4.5 2-9.1 3-13.7 3zM315.8 700c-4.6 0-9.2-1-13.6-3.1-16-7.5-22.8-26.6-15.3-42.6L387 442.2c7.5-16 26.6-22.8 42.6-15.3s22.8 26.6 15.3 42.6L344.8 681.6c-5.5 11.6-17 18.4-29 18.4z"  /><path d="M864 961.2H159.7c-52.9 0-96-43.1-96-96V736.8c0-52.9 43.1-96 96-96H864c52.9 0 96 43.1 96 96v128.5c0 52.9-43.1 95.9-96 95.9zM159.7 704.8c-17.6 0-32 14.4-32 32v128.5c0 17.6 14.4 32 32 32H864c17.6 0 32-14.4 32-32V736.8c0-17.6-14.4-32-32-32H159.7z"  /></svg>