<svg class="svg-icon" style="width: 1em; height: 1em;vertical-align: middle;fill: currentColor;overflow: hidden;" viewBox="0 0 1024 1024" version="1.1" xmlns="http://www.w3.org/2000/svg"><path d="M192 960h704a64 64 0 0 0 64-64V128a64 64 0 0 0-64-64H256a64 64 0 0 0-64 64v832zM256 0h640a128 128 0 0 1 128 128v768a128 128 0 0 1-128 128H128V128a128 128 0 0 1 128-128z" fill="#333333" /><path d="M352 256v64h448V256h-448z m0-64h448a64 64 0 0 1 64 64v64a64 64 0 0 1-64 64h-448a64 64 0 0 1-64-64V256a64 64 0 0 1 64-64zM128 960V576a64 64 0 0 0-64 64v256a64 64 0 0 0 64 64z m0-448h64v512H128a128 128 0 0 1-128-128v-256a128 128 0 0 1 128-128zM320 576a32 32 0 0 1 0-64h512a32 32 0 1 1 0 64H320zM320 768a32 32 0 1 1 0-64h512a32 32 0 1 1 0 64H320z" fill="#333333" /></svg>