<svg class="svg-icon" style="width: 1em; height: 1em;vertical-align: middle;fill: currentColor;overflow: hidden;" viewBox="0 0 1024 1024" version="1.1" xmlns="http://www.w3.org/2000/svg"><path d="M590.72 988.8c-24.96 0-55.04-16-68.48-24.32L153.6 743.04c0 0 0 0-0.64 0L54.4 743.04c-30.08 0-54.4-24.32-54.4-54.4L0 332.8c0-30.08 24.32-54.4 54.4-54.4l103.04 0 364.8-218.88c17.92-10.88 62.72-34.56 88.96-19.84 9.6 5.12 14.72 14.72 14.72 26.24l0 355.2c0 5.12-1.92 10.24-5.76 13.44-3.84 3.84-8.96 5.76-14.08 5.76l-1.28 0c-10.88 0-19.2-8.32-19.2-19.2 0-2.56 0.64-5.12 1.28-7.04L586.88 73.6c-8.32 1.28-24.32 5.76-45.44 18.56L174.08 313.6c0 0-0.64 0.64-0.64 0.64-3.2 1.92-6.4 3.2-10.24 3.2L54.4 317.44C45.44 316.8 38.4 323.84 38.4 332.8l0 355.84c0 8.96 7.04 16 16 16l104.96 0c4.48 0 8.96 1.92 12.16 4.48 0.64 0.64 1.28 0.64 1.28 1.28l368.64 221.44c21.12 12.8 37.12 17.28 45.44 18.56L586.88 610.56c-1.28-2.56-1.28-5.12-1.28-7.68 0-10.88 8.32-19.2 19.2-19.2 0 0 1.28 0 1.28 0 5.12 0 10.24 1.92 14.08 5.76 3.84 3.84 5.76 8.32 5.76 13.44l0 355.2c0 11.52-5.76 20.48-14.72 26.24C604.8 987.52 597.76 988.8 590.72 988.8z"  /><path d="M606.72 622.08c-5.12 0-9.6-1.92-13.44-5.76-3.84-3.84-5.76-8.32-5.76-13.44L587.52 421.12c0-5.12 1.92-10.24 5.76-13.44s8.32-5.76 14.08-5.76c59.52 1.28 108.16 50.56 108.16 110.08C715.52 571.52 666.88 621.44 606.72 622.08 606.72 622.08 606.72 622.08 606.72 622.08zM625.92 442.88l0 137.6c29.44-8.96 51.2-36.48 51.2-69.12S655.36 452.48 625.92 442.88z"  /><path d="M766.72 732.16c-6.4 0-12.8-3.2-16.64-8.96-5.76-8.96-2.56-21.12 6.4-26.24 64.64-39.68 103.68-108.8 103.68-184.96 0-78.72-42.88-151.04-111.36-189.44-8.96-5.12-12.8-16.64-7.68-26.24 5.12-8.96 16.64-12.8 26.24-7.68 80.64 45.44 131.2 130.56 131.2 222.72 0 89.6-45.44 170.88-121.6 217.6C773.76 731.52 770.56 732.16 766.72 732.16z"  /><path d="M856.96 839.68c-5.76 0-11.52-2.56-14.72-7.04-6.4-8.32-5.12-20.48 3.2-26.88 89.6-71.68 140.8-178.56 140.8-293.76 0-119.04-54.4-228.48-149.76-300.16-8.32-6.4-10.24-18.56-3.84-26.88 6.4-8.32 18.56-10.24 26.88-3.84C963.84 260.48 1024 380.8 1024 512c0 126.08-56.32 244.48-155.52 323.2C865.28 838.4 860.8 839.68 856.96 839.68z"  /></svg>