<svg xmlns="http://www.w3.org/2000/svg" width="512" height="512" enable-background="new 0 0 512 512" viewBox="0 0 512 512" id="bin"><path d="M443.293,167.912V71.209h-27.196V0H95.902v71.209H68.707v96.703h23.066L146.971,512h218.058l0.005-0.033   c40.988-0.699,74.121-34.237,74.121-75.389c0-32.894-21.175-60.921-50.604-71.208l31.676-197.458H443.293z M98.707,101.209h314.587   v36.703H98.707V101.209z M125.902,30h260.195v41.209H125.902V30z M409.155,436.578c0,25.046-20.376,45.422-45.422,45.422   s-45.422-20.376-45.422-45.422s20.376-45.423,45.422-45.423S409.155,411.532,409.155,436.578z M358.815,361.333   c-39.302,2.545-70.504,35.311-70.504,75.245c0,17.043,5.689,32.778,15.258,45.422H172.542l-50.386-314.088h267.687L358.815,361.333   z"></path><rect width="107" height="30" x="202.5" y="255"></rect></svg>