<svg class="svg-icon" style="width: 1em; height: 1em;vertical-align: middle;fill: currentColor;overflow: hidden;" viewBox="0 0 1024 1024" version="1.1" xmlns="http://www.w3.org/2000/svg"><path d="M853.333333 504.746667a42.666667 42.666667 0 0 0-42.666666 42.666666v237.653334a25.6 25.6 0 0 1-25.6 25.6H238.933333a25.6 25.6 0 0 1-25.6-25.6V238.933333a25.6 25.6 0 0 1 25.6-25.6h408.32a42.666667 42.666667 0 1 0 0-85.333333H238.933333A111.36 111.36 0 0 0 128 238.933333v546.133334A111.36 111.36 0 0 0 238.933333 896h546.133334a111.36 111.36 0 0 0 110.933333-110.933333v-237.653334a42.666667 42.666667 0 0 0-42.666667-42.666666z" fill="#231F20" /><path d="M457.386667 469.333333a42.666667 42.666667 0 0 0-61.44 58.88l94.72 99.413334a42.666667 42.666667 0 0 0 30.72 13.226666 42.666667 42.666667 0 0 0 30.72-12.8l289.28-298.666666a42.666667 42.666667 0 1 0-61.44-59.733334l-258.133334 267.093334z" fill="#231F20" /></svg>