<svg class="svg-icon" style="width: 1.3203125em; height: 1em;vertical-align: middle;fill: currentColor;overflow: hidden;" viewBox="0 0 1352 1024" version="1.1" xmlns="http://www.w3.org/2000/svg"><path d="M1327.99904 543.99936c-8.826703 0-15.99456 7.167857-15.99456 15.99456l0 416.00192c0 8.826703-7.167857 15.99456-15.99456 15.99456l-1247.98528 0c-8.826703 0-15.99456-7.167857-15.99456-15.99456l0-416.00192c0-8.826703-7.167857-15.99456-15.99456-15.99456s-15.99456 7.167857-15.99456 15.99456l0 416.00192c0 26.459631 21.544529 48.00416 48.00416 48.00416l1247.98528 0c26.459631 0 48.00416-21.544529 48.00416-48.00416l0-416.00192c0-8.826703-7.167857-15.99456-15.99456-15.99456zM1295.98944 224.00576l-1247.98528 0c-26.459631 0-48.00416 21.544529-48.00416 48.00416l0 191.99616c0 8.826703 7.167857 15.99456 15.99456 15.99456l431.99648 0 0 112.00288c0 26.459631 21.544529 48.00416 48.00416 48.00416l352.0032 0c26.459631 0 48.00416-21.544529 48.00416-48.00416l0-112.00288 431.99648 0c8.826703 0 15.99456-7.167857 15.99456-15.99456l0-191.99616c0-26.459631-21.544529-48.00416-48.00416-48.00416zM864.01344 591.98304c0 8.826703-7.167857 15.99456-15.99456 15.99456l-352.0032 0c-8.826703 0-15.99456-7.167857-15.99456-15.99456l0-112.00288 383.99232 0 0 112.00288zM1312.00448 447.99104l-1279.974401 0 0-176.0016c0-8.826703 7.167857-15.99456 15.99456-15.99456l1247.98528 0c8.826703 0 15.99456 7.167857 15.99456 15.99456l0 176.0016zM496.01568 0c-26.459631 0-48.00416 21.544529-48.00416 48.00416l0 127.99744c0 8.826703 7.167857 15.99456 15.99456 15.99456s15.99456-7.167857 15.99456-15.99456l0-127.99744c0-8.826703 7.167857-15.99456 15.99456-15.99456l352.0032 0c8.826703 0 15.99456 7.167857 15.99456 15.99456l0 127.99744c0 8.826703 7.167857 15.99456 15.99456 15.99456s15.99456-7.167857 15.99456-15.99456l0-127.99744c0-26.459631-21.544529-48.00416-48.00416-48.00416l-352.0032 0z"  /></svg>